<?xml version="1.0" encoding="UTF-8"?><svg id="Layer_2" xmlns="http://www.w3.org/2000/svg" viewBox="0 0 734.8 231.08"><defs><style>.cls-1{fill:#44946c;}.cls-2{fill:#640160;}.cls-3{fill:#254690;}.cls-4{fill:#2d74cd;}</style></defs><g id="Layer_1-2"><g><path class="cls-2" d="m187.95,10.22c31.91,4.13,63.7,16.77,63.7,35.7v79.79c11.81-17.04,19.57-34.39,19.57-50.55,0-67.31-68.27-92.18-117.98-63.26,9.47-2.66,21.28-3.39,34.71-1.68Z"/><path class="cls-3" d="m219.72,163.03l-65.71-14.31c-.18,0-.34.03-.49.07-1.07.27-1.88.8-1.88.8l-13.98,8.88s-1.25.53-1.18,1.35c.07.81,2.09,1.09,2.09,1.09l66.81,15.76c4.82-4.39,9.63-8.95,14.34-13.63Z"/><path class="cls-3" d="m158.12,108.25c0,5.55-4.34,9.45-9.67,8.71-5.31-.73-9.61-5.8-9.61-11.31s4.29-9.42,9.61-8.73c5.33.7,9.67,5.78,9.67,11.32Z"/><path class="cls-3" d="m215.04,118.81c0,5.65,4.33,10.84,9.68,11.59,5.38.75,9.75-3.25,9.75-8.94s-4.37-10.89-9.75-11.6c-5.35-.71-9.68,3.3-9.68,8.95Z"/><path class="cls-3" d="m187.99,28.26c-26.06-3.41-46.65,1.7-48.99,13.85-3.63,18.84.13,41.7,48.96,48.48,49.68,6.91,49.28-15.95,49.67-35.32.24-11.77-23.39-23.58-49.64-27.01Z"/><path class="cls-4" d="m237.63,55.27c.15-7.58-9.59-15.17-23.56-20.53-14.55.58-49.56,20.6-50.34,49.98,6.47,2.49,14.43,4.51,24.23,5.87,49.68,6.91,49.28-15.95,49.67-35.32Z"/><path class="cls-1" d="m135.61,143.68c-.86-.81-1.98-1.93-3.33-3.39-2.57-2.78-8.5-14.86-8.5-34.57,0,0,1.47-56.76,5.68-73.5.79-3.15,2.26-6.05,4.32-8.64C84.33-22.04,0,.34,0,75.15c0,35.03,36.46,75.66,71.58,106.65l64.04-37.17.63-.37c-.18-.17-.4-.37-.63-.59Z"/><g><path class="cls-3" d="m135.61,174.01l-15.64-3.86s-.64-.09-1.21,0c-.56.09-1.25.45-1.25.45l-14.28,8.08s-.8.42-.53,1.06c.2.48,1.13.59,1.13.59l31.77,8.59,42,11.36c4.79-3.82,9.77-7.92,14.85-12.24l-56.85-14.03Z"/><path class="cls-3" d="m84.87,193.16c27.36,22.66,50.75,37.91,50.75,37.91,0,0,10.37-6.76,25.36-17.96l-25.36-6.65-50.75-13.31Z"/></g></g><g><path class="cls-1" d="m409.18,138.18l46.14,69.35h-43.59l-43.59-66.52h-25.76v66.52h-37.93V57.51c0-23.77,10.19-33.96,33.97-33.96h46.42c41.61,0,62.56,19.53,62.56,58.88,0,30.57-12.74,49.25-38.21,55.76Zm-58.31-79.26c-5.66,0-8.49,2.83-8.49,8.49v38.21h42.46c16.41,0,24.62-7.65,24.62-23.21s-6.79-23.49-24.62-23.49h-33.97Z"/><path class="cls-3" d="m534.21,23.55c41.89,0,60.29,18.96,60.29,49.54,0,17.55-7.36,30.57-22.08,39.06,20.66,10.19,27.74,22.93,27.74,42.46,0,35.38-20.94,52.93-63.12,52.93h-43.59c-23.78,0-33.96-10.19-33.96-33.97V57.51c0-23.77,10.19-33.96,33.96-33.96h40.76Zm-28.3,35.38c-5.67,0-8.49,2.83-8.49,8.49v29.72h36.8c14.43,0,21.79-6.51,21.79-19.53s-7.36-18.68-21.79-18.68h-28.3Zm-8.49,70.76v33.97c0,5.65,2.83,8.49,8.49,8.49h31.14c16.41,0,24.62-6.79,24.62-20.66s-8.21-21.79-24.62-21.79h-39.63Z"/><path class="cls-2" d="m646.77,133.93v73.6h-37.93V57.51c0-23.77,10.19-33.96,33.96-33.96h91.99v35.38h-79.54c-5.66,0-8.49,2.83-8.49,8.49v31.13h76.71v35.38h-76.71Z"/></g></g></svg>